<svg id="Layer_1" enable-background="new 0 0 512 512" viewBox="0 0 512 512" xmlns="http://www.w3.org/2000/svg"><g><g><path d="m493.54 369.01c-1.62-5.87-4-11.59-7.17-17.04-.11-.23-.23-.43-.37-.62l-65.88-114.07 21.91-12.64c1.33-.74 2.47-1.84 3.29-3.23 2.38-4.14.94-9.44-3.2-11.79l-43.31-25.03c-.14-.09-.28-.17-.43-.26l-43.29-25c-1.39-.94-3.06-1.47-4.85-1.47-4.79 0-8.67 3.88-8.67 8.67v101.14c0 1.47.37 2.95 1.16 4.34 2.41 4.14 7.71 5.53 11.85 3.15l23.44-13.55 66.02 114.29c.06.14.14.28.2.43.99 1.73 1.76 3.49 2.27 5.33.45 1.7.68 3.49.68 5.33 0 1.81-.23 3.6-.68 5.3-.51 1.84-1.28 3.63-2.27 5.33-.99 1.73-2.15 3.29-3.49 4.65-1.22 1.22-2.49 2.27-3.86 3.09-.11.06-.26.14-.4.2l-.57.37c-1.36.71-2.86 1.25-4.51 1.64-1.76.43-3.63.62-5.61.62l-87.22-.71v.03c-4.76 0-8.65 3.86-8.65 8.65l.08 30.7c-.03.23-.03.48-.03.74 0 4.79 3.88 8.67 8.67 8.67l87.14.71c6.04 0 11.93-.74 17.57-2.18 5.67-1.42 11.11-3.57 16.21-6.41l.51-.26c.26-.14.51-.28.79-.45 5.22-3 10.03-6.72 14.34-11.06 4.08-4.14 7.71-8.87 10.83-14.17.11-.14.2-.31.28-.48 3.17-5.44 5.56-11.17 7.17-17.04 1.64-5.98 2.47-11.99 2.47-17.94.05-5.99-.77-12-2.42-17.98z" fill="#f94b4a"/></g><g><path d="m349.94 136.46c4.11-2.38 5.53-7.68 3.15-11.82-15.02-26.02-21.46-40.85-36.51-66.81-3.15-5.44-6.89-10.32-11.14-14.63-4.31-4.34-9.13-8.05-14.34-11.08-.28-.14-.57-.31-.88-.43-5.07-2.83-10.43-5.02-16.02-6.52-5.9-1.53-11.99-2.35-18.2-2.35-6.04 0-11.93.77-17.57 2.18-5.67 1.45-11.11 3.6-16.21 6.43l-.51.23-.79.45c-5.22 3.03-10.03 6.75-14.34 11.08-4.2 4.22-7.88 9.04-10.97 14.37l-.11.2c-.17.25-.31.51-.43.79l-65.59 113.61-22.05-12.73c-1.42-.99-3.15-1.59-5.02-1.59-4.79 0-8.67 3.88-8.67 8.67v50.57h.03v50.57c0 1.45.37 2.95 1.16 4.31 2.38 4.11 7.65 5.56 11.79 3.17l87.14-50.31c1.47-.71 2.75-1.87 3.63-3.4 2.41-4.14.99-9.44-3.15-11.82l-22.76-13.15 65.59-113.64c.14-.2.28-.43.4-.62 1.02-1.73 2.18-3.29 3.51-4.65 1.19-1.22 2.49-2.27 3.83-3.09.14-.06.28-.14.43-.23l.6-.34c1.33-.71 2.83-1.25 4.48-1.64 1.73-.43 3.63-.62 5.61-.62 2.13 0 4.08.23 5.9.68 1.53.4 2.95.91 4.2 1.56.2.14.4.26.6.37 1.53.91 2.98 2.01 4.25 3.32 1.3 1.33 2.47 2.89 3.51 4.68.17.31.31.54.37.65.08.11.23.31.4.6l34.16 62.65c2.13 4.03 7.03 5.73 11.23 3.83l28.18-12.93c.34-.18.71-.35 1.11-.57z" fill="#dc3c45"/></g><g><path d="m306.66 422.47-43.31-25c-.14-.11-.28-.2-.45-.28l-43.29-24.97c-1.36-.96-3.03-1.5-4.85-1.5-4.79 0-8.67 3.88-8.67 8.67v28.8h-119.91c-2.1 0-4.08-.23-5.87-.68-1.62-.4-3.06-.96-4.37-1.64-.17-.11-.31-.2-.48-.31-1.5-.85-2.89-1.96-4.22-3.29-1.22-1.25-2.32-2.69-3.26-4.25-.08-.14-.17-.28-.23-.43-.31-.54-.2-.34-.31-.54l-.2-.28c-.79-1.53-1.39-3.09-1.81-4.68-.43-1.62-.62-3.34-.62-5.1 0-1.9.23-3.71.68-5.41.45-1.64 1.13-3.29 2.01-4.88.09-.14.17-.25.26-.4l37.64-65.25c2.38-4.14.94-9.41-3.2-11.79l-26.62-15.36c-.14-.11-.31-.2-.45-.28-4.14-2.38-9.44-.99-11.82 3.15l-37.67 65.28v.03c-3.17 5.47-5.56 11.17-7.17 16.98-1.64 5.98-2.47 11.99-2.47 17.94 0 5.75.77 11.59 2.3 17.35 1.45 5.41 3.6 10.77 6.41 15.93.28.62.6 1.13.94 1.7 3.17 5.5 6.92 10.37 11.11 14.66 4.31 4.34 9.13 8.05 14.34 11.06h.06c.2.14.43.26.65.37 5.13 2.86 10.54 5.1 16.21 6.58 5.87 1.56 11.96 2.35 18.17 2.35h119.91v23.56h.03c0 1.47.37 2.98 1.16 4.34 2.41 4.14 7.68 5.56 11.82 3.15l43.8-25.29 43.68-25.23c1.33-.74 2.47-1.81 3.26-3.23 2.36-4.17.94-9.45-3.19-11.83z" fill="#dc3c45"/></g><g><path clip-rule="evenodd" d="m93.72 166.53v50.57h.03v50.57c0 1.45.37 2.95 1.16 4.31.6 1.05 1.39 1.9 2.3 2.58l119.39-205.14.08-.2c1.96-3.29 4.28-6.32 6.97-9.04s5.7-5.1 8.99-7.03l.37-.14.88-.51c3.29-1.81 6.8-3.2 10.46-4.14 3.8-.96 7.71-1.45 11.65-1.45 4.08 0 8.11.51 12.05 1.56 3.63.96 7.11 2.41 10.37 4.25l1.96 1.08.06.03c2.83 1.81 5.5 3.91 7.88 6.32 2.89 2.92 5.36 6.21 7.43 9.75 9.89 17.09 29.51 56.27 38.95 73.59l14.09-6.46c.4-.17.77-.34 1.16-.57 4.11-2.38 5.53-7.68 3.15-11.82-15.02-26.02-21.46-40.85-36.51-66.81-3.15-5.44-6.89-10.32-11.14-14.63-4.31-4.34-9.13-8.05-14.34-11.08-.28-.14-.57-.31-.88-.43-5.07-2.83-10.43-5.02-16.02-6.52-5.9-1.53-11.99-2.35-18.2-2.35-6.04 0-11.93.77-17.57 2.18-5.67 1.45-11.11 3.6-16.21 6.43l-.51.23-.79.45c-5.22 3.03-10.03 6.75-14.34 11.08-4.2 4.22-7.88 9.04-10.97 14.37l-.11.2c-.17.25-.31.51-.43.79l-65.59 113.61-22.05-12.73c-1.42-.99-3.15-1.59-5.02-1.59-4.82.02-8.7 3.9-8.7 8.69z" fill="#f94b4a" fill-rule="evenodd"/></g><g><path clip-rule="evenodd" d="m63.3 286.75-37.67 65.28v.03c-3.17 5.47-5.56 11.17-7.17 16.98-1.64 5.98-2.47 11.99-2.47 17.94 0 5.75.77 11.59 2.3 17.35 1.45 5.41 3.6 10.77 6.41 15.93.28.62.6 1.13.94 1.7 3.17 5.5 6.92 10.37 11.11 14.66 4.31 4.34 9.13 8.05 14.34 11.06h.06c.2.14.43.26.65.37 5.13 2.86 10.54 5.1 16.21 6.58 5.87 1.56 11.96 2.35 18.17 2.35h119.91v23.56h.03c0 1.47.37 2.98 1.16 4.34 2.41 4.14 7.68 5.56 11.82 3.15l43.8-25.29 43.68-25.23c1.33-.74 2.47-1.81 3.26-3.23.57-.96.91-1.98 1.05-3.03l-224.7 1.64c-4.05 0-8.11-.51-12.02-1.56-3.57-.94-6.97-2.32-10.2-4.08l-5.24-3.66h-.43c-1.56-1.19-3.03-2.49-4.39-3.88-2.89-2.92-5.33-6.21-7.4-9.75l-.11-.23-.11-.17-.06-.17-.34-.6c-1.81-3.37-3.32-6.94-4.28-10.63-.99-3.66-1.5-7.4-1.5-11.17 0-3.88.57-7.77 1.59-11.51 1.11-3.97 2.72-7.77 4.79-11.31l3.26-5.61v-.06l38.81-67.12-12.95-7.48c-.14-.11-.31-.2-.45-.28-4.18-2.4-9.48-1.01-11.86 3.13z" fill="#f94b4a" fill-rule="evenodd"/></g><g><path clip-rule="evenodd" d="m341.58 166.53v101.14c0 1.47.37 2.95 1.16 4.34 2.41 4.14 7.71 5.53 11.85 3.15l23.44-13.55 66.02 114.29c.06.14.14.28.2.43.99 1.73 1.76 3.49 2.27 5.33.45 1.7.68 3.49.68 5.33 0 1.81-.23 3.6-.68 5.3-.51 1.84-1.28 3.63-2.27 5.33-.99 1.73-2.15 3.29-3.49 4.65-1.22 1.22-2.49 2.27-3.86 3.09-.11.06-.26.14-.4.2l-.57.37c-1.36.71-2.86 1.25-4.51 1.64-1.76.43-3.63.62-5.61.62l-87.22-.71v.03c-4.76 0-8.65 3.86-8.65 8.65l.06 15.56 95.61.57c3.86.03 7.71-.4 11.48-1.3 3.49-.82 6.86-2.07 10.06-3.74l.96-.51.34-.2.08-.06.85-.51c3.12-1.87 5.95-4.17 8.5-6.77 2.81-2.83 5.22-6.07 7.2-9.52 2.01-3.49 3.63-7.2 4.68-11.08 1.02-3.8 1.5-7.68 1.5-11.59s-.48-7.82-1.5-11.62c-.96-3.49-2.32-6.8-4.05-9.98l-.2-.45-118.52-205.2-4.28 2.49c-.71 1.22-1.13 2.72-1.13 4.28z" fill="#dc3c45" fill-rule="evenodd"/></g></g></svg>